<?xml version="1.0" encoding="utf-8" standalone="no"?>
<!DOCTYPE svg PUBLIC "-//W3C//DTD SVG 1.1//EN"
  "http://www.w3.org/Graphics/SVG/1.1/DTD/svg11.dtd">
<svg xmlns:xlink="http://www.w3.org/1999/xlink" width="404.923125pt" height="314.667469pt" viewBox="0 0 404.923125 314.667469" xmlns="http://www.w3.org/2000/svg" version="1.1">
 <metadata>
  <rdf:RDF xmlns:dc="http://purl.org/dc/elements/1.1/" xmlns:cc="http://creativecommons.org/ns#" xmlns:rdf="http://www.w3.org/1999/02/22-rdf-syntax-ns#">
   <cc:Work>
    <dc:type rdf:resource="http://purl.org/dc/dcmitype/StillImage"/>
    <dc:date>2025-12-03T02:18:13.625349</dc:date>
    <dc:format>image/svg+xml</dc:format>
    <dc:creator>
     <cc:Agent>
      <dc:title>Matplotlib v3.10.3, https://matplotlib.org/</dc:title>
     </cc:Agent>
    </dc:creator>
   </cc:Work>
  </rdf:RDF>
 </metadata>
 <defs>
  <style type="text/css">*{stroke-linejoin: round; stroke-linecap: butt}</style>
 </defs>
 <g id="figure_1">
  <g id="patch_1">
   <path d="M 0 314.667469 
L 404.923125 314.667469 
L 404.923125 0 
L 0 0 
z
" style="fill: #ffffff"/>
  </g>
  <g id="axes_1">
   <g id="patch_2">
    <path d="M 40.603125 277.111219 
L 397.723125 277.111219 
L 397.723125 10.999219 
L 40.603125 10.999219 
z
" style="fill: #ffffff"/>
   </g>
   <g id="line2d_1">
    <path d="M 56.835852 130.118255 
L 67.125154 137.436656 
L 76.602142 143.91614 
L 85.537589 149.76061 
L 93.931493 154.983134 
L 101.783854 159.602549 
L 109.094674 163.643784 
L 115.863951 167.137802 
L 122.362458 170.245501 
L 128.590193 172.976746 
L 134.547157 175.344818 
L 140.23335 177.366388 
L 145.648772 179.061334 
L 151.064194 180.51949 
L 156.208845 181.675504 
L 161.353496 182.599802 
L 166.227376 183.255484 
L 171.101255 183.69253 
L 175.975135 183.907867 
L 180.849015 183.899956 
L 185.722895 183.668855 
L 190.596774 183.216211 
L 195.470654 182.545207 
L 200.615305 181.605137 
L 205.759956 180.433862 
L 210.904607 179.039664 
L 216.320028 177.341552 
L 222.006222 175.316836 
L 227.692415 173.058772 
L 233.649379 170.459067 
L 239.877114 167.503318 
L 246.646391 164.036747 
L 253.68644 160.175727 
L 261.268031 155.754286 
L 269.120392 150.916907 
L 277.514296 145.487998 
L 286.720514 139.263921 
L 296.739044 132.21137 
L 307.569888 124.304946 
L 319.213045 115.526751 
L 331.939287 105.652763 
L 346.019384 94.444102 
L 361.724108 81.650929 
L 379.053458 67.243186 
L 381.490398 65.195994 
L 381.490398 65.195994 
" clip-path="url(#p1573ce6301)" style="fill: none; stroke: #000000; stroke-linecap: square"/>
   </g>
   <g id="line2d_2">
    <path d="M 56.835852 110.424709 
L 70.103636 123.818315 
L 81.746793 135.262822 
L 92.036095 145.072969 
L 101.242312 153.550876 
L 109.636216 160.979488 
L 117.217807 167.391956 
L 123.987084 172.83487 
L 130.21482 177.567735 
L 135.901013 181.624941 
L 141.316435 185.222952 
L 146.461085 188.3714 
L 151.334965 191.085096 
L 155.938074 193.384233 
L 160.270411 195.294231 
L 164.331978 196.845225 
L 168.393544 198.150314 
L 172.18434 199.13561 
L 175.975135 199.887301 
L 179.495159 200.370094 
L 183.015184 200.641593 
L 186.535208 200.699546 
L 190.055232 200.543468 
L 193.575256 200.17466 
L 197.366052 199.543099 
L 201.156847 198.674242 
L 204.947642 197.575867 
L 209.009209 196.154994 
L 213.070775 194.494435 
L 217.403113 192.474919 
L 222.006222 190.068014 
L 226.60933 187.413296 
L 231.753981 184.179184 
L 237.169403 180.500444 
L 242.855596 176.368101 
L 249.083331 171.563144 
L 255.852609 166.052521 
L 263.163428 159.811829 
L 271.286561 152.579191 
L 280.222007 144.319757 
L 290.240538 134.747639 
L 301.342153 123.828207 
L 314.068395 110.987781 
L 328.419263 96.182476 
L 344.9363 78.812135 
L 363.890276 58.547968 
L 381.490398 39.490146 
L 381.490398 39.490146 
" clip-path="url(#p1573ce6301)" style="fill: none; stroke: #000000; stroke-linecap: square"/>
   </g>
   <g id="line2d_3">
    <path d="M 81.571247 -1 
L 90.953011 39.090921 
L 98.26383 69.430254 
L 104.220794 93.267392 
L 109.094674 111.919714 
L 113.15624 126.655777 
L 116.676265 138.63847 
L 119.654747 148.045602 
L 122.362458 155.874791 
L 124.799398 162.21164 
L 126.965566 167.181983 
L 128.860964 170.947196 
L 130.485591 173.692941 
L 131.839446 175.613553 
L 133.193302 177.179335 
L 134.547157 178.373407 
L 135.630242 179.051766 
L 136.713326 179.478307 
L 137.79641 179.649726 
L 138.879495 179.564677 
L 139.962579 179.223828 
L 141.045663 178.629835 
L 142.128748 177.787241 
L 143.482603 176.394081 
L 144.836459 174.637808 
L 146.190314 172.536714 
L 147.814941 169.588929 
L 149.710339 165.609073 
L 151.605736 161.104213 
L 153.771905 155.388002 
L 156.208845 148.330323 
L 159.187327 138.947098 
L 162.43658 127.935713 
L 166.227376 114.280805 
L 170.830484 96.803145 
L 176.245906 75.310574 
L 182.744412 48.573636 
L 190.867545 14.157784 
L 194.386548 -1 
L 194.386548 -1 
" clip-path="url(#p1573ce6301)" style="fill: none; stroke: #000000; stroke-linecap: square"/>
   </g>
   <g id="line2d_4">
    <path d="M 91.239393 -1 
L 99.888457 24.561745 
L 107.470047 46.297318 
L 113.968554 64.275446 
L 119.654747 79.375342 
L 124.799398 92.402947 
L 129.131735 102.802967 
L 133.193302 111.985618 
L 136.713326 119.423671 
L 139.962579 125.795684 
L 142.941061 131.165456 
L 145.648772 135.611211 
L 148.085712 139.222986 
L 150.522652 142.43498 
L 152.688821 144.930824 
L 154.854989 147.068172 
L 156.750387 148.630132 
L 158.645785 149.893248 
L 160.270411 150.731214 
L 161.895038 151.338478 
L 163.519665 151.711689 
L 165.144291 151.848754 
L 166.768918 151.748901 
L 168.393544 151.412692 
L 170.018171 150.842016 
L 171.642797 150.040031 
L 173.267424 149.011083 
L 175.162822 147.531066 
L 177.058219 145.759728 
L 179.224388 143.393559 
L 181.390557 140.681088 
L 183.827497 137.240801 
L 186.264437 133.417452 
L 188.972148 128.756133 
L 191.95063 123.17221 
L 195.199883 116.592392 
L 198.719907 108.957003 
L 202.781474 99.578484 
L 207.113811 89.001882 
L 211.987691 76.510782 
L 217.403113 62.024587 
L 223.630848 44.725905 
L 230.941668 23.727626 
L 239.304475 -1 
L 239.304475 -1 
" clip-path="url(#p1573ce6301)" style="fill: none; stroke: #000000; stroke-linecap: square"/>
   </g>
   <g id="line2d_5">
    <path d="M 56.835852 90.465766 
L 60.897419 88.64325 
L 64.958985 86.579851 
L 69.291323 84.122106 
L 73.62366 81.409088 
L 78.226769 78.258505 
L 82.829878 74.844467 
L 87.703757 70.957006 
L 92.848408 66.566276 
L 98.26383 61.645207 
L 103.950023 56.169868 
L 109.906987 50.11969 
L 116.134723 43.477575 
L 122.904 35.921274 
L 129.944048 27.724171 
L 137.525639 18.54771 
L 145.648772 8.35555 
L 152.881018 -1 
L 152.881018 -1 
" clip-path="url(#p1573ce6301)" style="fill: none; stroke: #000000; stroke-linecap: square"/>
   </g>
   <g id="line2d_6">
    <path d="M 60.764699 -1 
L 88.786842 10.461348 
L 115.051638 20.968217 
L 139.962579 30.69564 
L 163.248893 39.553614 
L 185.452123 47.763341 
L 206.301498 55.239286 
L 226.338559 62.188712 
L 245.292536 68.529143 
L 263.434199 74.365301 
L 280.76355 79.708881 
L 297.280587 84.57413 
L 313.256081 89.051772 
L 328.690034 93.149047 
L 343.582444 96.875065 
L 357.933312 100.240824 
L 372.013409 103.316131 
L 381.490398 105.253346 
L 381.490398 105.253346 
" clip-path="url(#p1573ce6301)" style="fill: none; stroke: #000000; stroke-linecap: square"/>
   </g>
   <g id="line2d_7">
    <path d="M 109.640084 -1 
L 125.070169 38.038744 
L 137.254868 68.289598 
L 147.273399 92.587529 
L 155.396532 111.737754 
L 162.43658 127.776557 
L 168.393544 140.799805 
L 173.538195 151.51474 
L 177.870533 160.049578 
L 181.661328 167.063995 
L 185.181352 173.119516 
L 188.159834 177.83736 
L 190.867545 181.753636 
L 193.304485 184.935957 
L 195.741425 187.757926 
L 197.907594 189.93543 
L 199.802992 191.565575 
L 201.698389 192.923175 
L 203.593787 193.994874 
L 205.218413 194.677386 
L 206.84304 195.136149 
L 208.467667 195.367396 
L 210.092293 195.369196 
L 211.71692 195.141533 
L 213.341546 194.68631 
L 214.966173 194.007264 
L 216.5908 193.109826 
L 218.486197 191.796075 
L 220.381595 190.207572 
L 222.547764 188.074686 
L 224.713932 185.62599 
L 227.150872 182.524372 
L 229.858583 178.688398 
L 232.837065 174.048172 
L 236.086319 168.548213 
L 239.606343 162.148525 
L 243.667909 154.285642 
L 248.271018 144.865449 
L 253.415669 133.823677 
L 259.372633 120.507642 
L 266.412681 104.208825 
L 274.806585 84.185045 
L 284.825116 59.680147 
L 297.009815 29.257488 
L 308.945322 -1 
L 308.945322 -1 
" clip-path="url(#p1573ce6301)" style="fill: none; stroke: #000000; stroke-linecap: square"/>
   </g>
   <g id="line2d_8">
    <path d="M 56.835852 26.56236 
L 71.457492 19.137735 
L 86.891444 11.049994 
L 103.13771 2.283063 
L 109.109351 -1 
L 109.109351 -1 
" clip-path="url(#p1573ce6301)" style="fill: none; stroke: #000000; stroke-linecap: square"/>
   </g>
   <g id="line2d_9">
    <path d="M 123.975353 -1 
L 135.901013 10.722688 
L 147.273399 21.602216 
L 157.833472 31.408483 
L 167.852002 40.415164 
L 177.32899 48.637632 
L 186.264437 56.095864 
L 194.658341 62.814599 
L 202.510703 68.823309 
L 210.092293 74.348312 
L 217.403113 79.397126 
L 224.17239 83.808905 
L 230.670897 87.789369 
L 236.898632 91.354642 
L 243.126367 94.661358 
L 249.083331 97.56918 
L 254.769524 100.100632 
L 260.455717 102.383023 
L 265.871139 104.316136 
L 271.286561 106.006421 
L 276.431212 107.380654 
L 281.575863 108.52366 
L 286.720514 109.43071 
L 291.594393 110.068871 
L 296.468273 110.489329 
L 301.342153 110.690434 
L 306.216033 110.671391 
L 311.089912 110.432276 
L 315.963792 109.974033 
L 320.837672 109.298457 
L 325.711552 108.408159 
L 330.856203 107.239196 
L 336.000853 105.839583 
L 341.145504 104.21492 
L 346.560926 102.268529 
L 351.976348 100.087733 
L 357.662541 97.554975 
L 363.348734 94.783588 
L 369.305698 91.635952 
L 375.533434 88.091358 
L 381.490398 84.471047 
L 381.490398 84.471047 
" clip-path="url(#p1573ce6301)" style="fill: none; stroke: #000000; stroke-linecap: square"/>
   </g>
   <g id="line2d_10">
    <path d="M 59.947125 -1 
L 63.063588 20.508188 
L 65.771298 37.71014 
L 68.208238 51.735784 
L 70.374407 62.816192 
L 72.269805 71.266579 
L 73.894431 77.466308 
L 75.248287 81.825981 
L 76.602142 85.398399 
L 77.685227 87.659251 
L 78.768311 89.368286 
L 79.580624 90.278637 
L 80.392938 90.865287 
L 81.205251 91.125173 
L 82.017564 91.056924 
L 82.829878 90.660901 
L 83.642191 89.939185 
L 84.454504 88.895522 
L 85.266817 87.535229 
L 86.349902 85.240836 
L 87.432986 82.415173 
L 88.786842 78.170888 
L 90.140697 73.181801 
L 91.765324 66.28675 
L 93.660721 57.109491 
L 95.82689 45.306159 
L 98.26383 30.593246 
L 100.971541 12.763489 
L 102.937964 -1 
L 102.937964 -1 
" clip-path="url(#p1573ce6301)" style="fill: none; stroke: #000000; stroke-linecap: square"/>
   </g>
   <g id="line2d_11">
    <path d="M 177.041875 -1 
L 188.701377 10.394078 
L 199.802992 20.939325 
L 210.092293 30.414797 
L 219.840053 39.095048 
L 229.04627 46.998154 
L 237.710945 54.14681 
L 245.834078 60.568377 
L 253.68644 66.494172 
L 260.99726 71.741011 
L 268.037308 76.527597 
L 274.806585 80.866012 
L 281.305092 84.770821 
L 287.532827 88.259019 
L 293.489791 91.349901 
L 299.446755 94.188214 
L 305.132948 96.650943 
L 310.54837 98.763198 
L 315.963792 100.63962 
L 321.108443 102.196858 
L 326.253094 103.528486 
L 331.397745 104.629279 
L 336.542396 105.494796 
L 341.416275 106.094482 
L 346.290155 106.477531 
L 351.164035 106.642483 
L 356.037915 106.588705 
L 360.911794 106.316404 
L 365.785674 105.826621 
L 370.659554 105.121215 
L 375.804205 104.145623 
L 380.948856 102.936719 
L 381.490398 102.796083 
L 381.490398 102.796083 
" clip-path="url(#p1573ce6301)" style="fill: none; stroke: #000000; stroke-linecap: square"/>
   </g>
   <g id="line2d_12">
    <path d="M 180.87544 -1 
L 193.033714 10.300458 
L 204.676871 20.819852 
L 215.507715 30.306134 
L 225.526246 38.793491 
L 235.003234 46.539451 
L 243.93868 53.564927 
L 252.603355 60.094671 
L 260.726488 65.94014 
L 268.57885 71.314803 
L 275.88967 76.055579 
L 282.929718 80.363297 
L 289.698996 84.251121 
L 296.197502 87.734501 
L 302.425237 90.831061 
L 308.652973 93.67892 
L 314.609937 96.159405 
L 320.29613 98.295725 
L 325.982323 100.19768 
L 331.397745 101.784188 
L 336.813167 103.14519 
L 342.228589 104.275358 
L 347.644011 105.17014 
L 352.788661 105.798787 
L 357.933312 106.209281 
L 363.077963 106.400049 
L 368.222614 106.370354 
L 373.367265 106.12031 
L 378.511916 105.650883 
L 381.490398 105.279509 
L 381.490398 105.279509 
" clip-path="url(#p1573ce6301)" style="fill: none; stroke: #000000; stroke-linecap: square"/>
   </g>
   <g id="line2d_13">
    <path d="M 162.336546 -1 
L 173.538195 38.303607 
L 182.473641 68.893578 
L 189.784461 93.160907 
L 195.741425 112.200937 
L 200.886076 127.904825 
L 205.218413 140.413316 
L 208.738438 149.95156 
L 211.987691 158.132459 
L 214.695402 164.395244 
L 217.132342 169.522362 
L 219.298511 173.61413 
L 221.193908 176.790606 
L 223.089306 179.551445 
L 224.713932 181.559603 
L 226.338559 183.214493 
L 227.692415 184.309952 
L 229.04627 185.137636 
L 230.400126 185.690271 
L 231.753981 185.962855 
L 232.837065 185.977509 
L 233.92015 185.811185 
L 235.274005 185.350381 
L 236.627861 184.612616 
L 237.981716 183.604447 
L 239.335572 182.334501 
L 240.960198 180.479701 
L 242.584825 178.283307 
L 244.480223 175.318794 
L 246.37562 171.956354 
L 248.541789 167.673547 
L 250.978729 162.357594 
L 253.68644 155.914566 
L 256.935693 147.55321 
L 260.455717 137.85624 
L 264.517284 126.005429 
L 269.391164 111.053997 
L 275.077357 92.849605 
L 281.846634 70.396759 
L 289.969767 42.659947 
L 299.988297 7.636362 
L 302.42978 -1 
L 302.42978 -1 
" clip-path="url(#p1573ce6301)" style="fill: none; stroke: #000000; stroke-linecap: square"/>
   </g>
   <g id="line2d_14">
    <path d="M 172.124162 -1 
L 177.058219 15.831253 
L 181.661328 30.746426 
L 185.722895 43.156887 
L 189.242919 53.248915 
L 192.492172 61.938389 
L 195.470654 69.309153 
L 198.178365 75.462001 
L 200.615305 80.511394 
L 203.052245 85.060381 
L 205.218413 88.654444 
L 207.384582 91.799731 
L 209.27998 94.165442 
L 211.175378 96.155599 
L 212.800004 97.553008 
L 214.424631 98.658583 
L 216.049257 99.466875 
L 217.403113 99.91038 
L 218.756968 100.143013 
L 220.110824 100.163942 
L 221.464679 99.973092 
L 222.818535 99.571146 
L 224.17239 98.959532 
L 225.797017 97.95191 
L 227.421643 96.650503 
L 229.04627 95.061612 
L 230.941668 92.854554 
L 232.837065 90.279885 
L 234.732463 87.352569 
L 236.898632 83.595869 
L 239.335572 78.875326 
L 241.772512 73.666639 
L 244.480223 67.351034 
L 247.458705 59.81795 
L 250.707958 50.970189 
L 254.227982 40.726968 
L 258.018777 29.025373 
L 262.351115 14.917823 
L 267.011105 -1 
L 267.011105 -1 
" clip-path="url(#p1573ce6301)" style="fill: none; stroke: #000000; stroke-linecap: square"/>
   </g>
   <g id="line2d_15">
    <path d="M 0 0 
" clip-path="url(#p1573ce6301)" style="fill: none; stroke: #000000; stroke-linecap: square"/>
   </g>
   <g id="line2d_16">
    <path d="M 163.26275 -1 
L 173.808966 72.592589 
L 180.578244 118.40734 
L 185.181352 148.18958 
L 188.430605 167.958558 
L 191.138316 183.092696 
L 193.033714 192.580789 
L 194.658341 199.69219 
L 196.012196 204.683468 
L 197.095281 207.929729 
L 198.178365 210.405789 
L 198.990678 211.703726 
L 199.53222 212.285797 
L 200.073763 212.633783 
L 200.615305 212.743889 
L 201.156847 212.614896 
L 201.698389 212.24823 
L 202.239931 211.647884 
L 203.052245 210.323672 
L 203.864558 208.518033 
L 204.947642 205.425874 
L 206.030727 201.64077 
L 207.384582 196.084434 
L 209.009209 188.437793 
L 211.175378 176.988864 
L 213.883089 161.268317 
L 217.403113 139.326285 
L 222.006222 109.104612 
L 228.504728 64.831665 
L 237.925035 -1 
L 237.925035 -1 
" clip-path="url(#p1573ce6301)" style="fill: none; stroke: #000000; stroke-linecap: square"/>
   </g>
   <g id="line2d_17">
    <path d="M 0 0 
" clip-path="url(#p1573ce6301)" style="fill: none; stroke: #000000; stroke-linecap: square"/>
   </g>
   <g id="line2d_18">
    <path d="M 0 0 
" clip-path="url(#p1573ce6301)" style="fill: none; stroke: #000000; stroke-linecap: square"/>
   </g>
   <g id="line2d_19">
    <path d="M 0 0 
" clip-path="url(#p1573ce6301)" style="fill: none; stroke: #000000; stroke-linecap: square"/>
   </g>
   <g id="line2d_20">
    <path d="M 0 0 
" clip-path="url(#p1573ce6301)" style="fill: none; stroke: #000000; stroke-linecap: square"/>
   </g>
   <g id="line2d_21">
    <path d="M 0 0 
" clip-path="url(#p1573ce6301)" style="fill: none; stroke: #000000; stroke-linecap: square"/>
   </g>
   <g id="line2d_22">
    <path d="M 0 0 
" clip-path="url(#p1573ce6301)" style="fill: none; stroke: #000000; stroke-linecap: square"/>
   </g>
   <g id="line2d_23">
    <path d="M 0 0 
" clip-path="url(#p1573ce6301)" style="fill: none; stroke: #000000; stroke-linecap: square"/>
   </g>
   <g id="line2d_24">
    <path d="M 0 0 
" clip-path="url(#p1573ce6301)" style="fill: none; stroke: #000000; stroke-linecap: square"/>
   </g>
   <g id="line2d_25">
    <path d="M 0 0 
" clip-path="url(#p1573ce6301)" style="fill: none; stroke: #000000; stroke-linecap: square"/>
   </g>
   <g id="line2d_26">
    <path d="M 0 0 
" clip-path="url(#p1573ce6301)" style="fill: none; stroke: #000000; stroke-linecap: square"/>
   </g>
   <g id="line2d_27">
    <path d="M 0 0 
" clip-path="url(#p1573ce6301)" style="fill: none; stroke: #000000; stroke-linecap: square"/>
   </g>
   <g id="line2d_28">
    <path d="M 0 0 
" clip-path="url(#p1573ce6301)" style="fill: none; stroke: #000000; stroke-linecap: square"/>
   </g>
   <g id="line2d_29">
    <path d="M 0 0 
" clip-path="url(#p1573ce6301)" style="fill: none; stroke: #000000; stroke-linecap: square"/>
   </g>
   <g id="matplotlib.axis_1">
    <g id="xtick_1">
     <g id="line2d_30">
      <path d="M 56.835852 277.111219 
L 56.835852 10.999219 
" clip-path="url(#p1573ce6301)" style="fill: none; stroke: #b0b0b0; stroke-width: 0.8; stroke-linecap: square"/>
     </g>
     <g id="line2d_31">
      <defs>
       <path id="mb6a793ce25" d="M 0 0 
L 0 3.5 
" style="stroke: #000000; stroke-width: 0.8"/>
      </defs>
      <g>
       <use xlink:href="#mb6a793ce25" x="56.835852" y="277.111219" style="stroke: #000000; stroke-width: 0.8"/>
      </g>
     </g>
     <g id="text_1">
      <!-- -20 -->
      <g transform="translate(48.669446 291.709656) scale(0.1 -0.1)">
       <defs>
        <path id="DejaVuSans-2d" d="M 313 2009 
L 1997 2009 
L 1997 1497 
L 313 1497 
L 313 2009 
z
" transform="scale(0.015625)"/>
        <path id="DejaVuSans-32" d="M 1228 531 
L 3431 531 
L 3431 0 
L 469 0 
L 469 531 
Q 828 903 1448 1529 
Q 2069 2156 2228 2338 
Q 2531 2678 2651 2914 
Q 2772 3150 2772 3378 
Q 2772 3750 2511 3984 
Q 2250 4219 1831 4219 
Q 1534 4219 1204 4116 
Q 875 4013 500 3803 
L 500 4441 
Q 881 4594 1212 4672 
Q 1544 4750 1819 4750 
Q 2544 4750 2975 4387 
Q 3406 4025 3406 3419 
Q 3406 3131 3298 2873 
Q 3191 2616 2906 2266 
Q 2828 2175 2409 1742 
Q 1991 1309 1228 531 
z
" transform="scale(0.015625)"/>
        <path id="DejaVuSans-30" d="M 2034 4250 
Q 1547 4250 1301 3770 
Q 1056 3291 1056 2328 
Q 1056 1369 1301 889 
Q 1547 409 2034 409 
Q 2525 409 2770 889 
Q 3016 1369 3016 2328 
Q 3016 3291 2770 3770 
Q 2525 4250 2034 4250 
z
M 2034 4750 
Q 2819 4750 3233 4129 
Q 3647 3509 3647 2328 
Q 3647 1150 3233 529 
Q 2819 -91 2034 -91 
Q 1250 -91 836 529 
Q 422 1150 422 2328 
Q 422 3509 836 4129 
Q 1250 4750 2034 4750 
z
" transform="scale(0.015625)"/>
       </defs>
       <use xlink:href="#DejaVuSans-2d"/>
       <use xlink:href="#DejaVuSans-32" transform="translate(36.083984 0)"/>
       <use xlink:href="#DejaVuSans-30" transform="translate(99.707031 0)"/>
      </g>
     </g>
    </g>
    <g id="xtick_2">
     <g id="line2d_32">
      <path d="M 110.990072 277.111219 
L 110.990072 10.999219 
" clip-path="url(#p1573ce6301)" style="fill: none; stroke: #b0b0b0; stroke-width: 0.8; stroke-linecap: square"/>
     </g>
     <g id="line2d_33">
      <g>
       <use xlink:href="#mb6a793ce25" x="110.990072" y="277.111219" style="stroke: #000000; stroke-width: 0.8"/>
      </g>
     </g>
     <g id="text_2">
      <!-- 0 -->
      <g transform="translate(107.808822 291.709656) scale(0.1 -0.1)">
       <use xlink:href="#DejaVuSans-30"/>
      </g>
     </g>
    </g>
    <g id="xtick_3">
     <g id="line2d_34">
      <path d="M 165.144291 277.111219 
L 165.144291 10.999219 
" clip-path="url(#p1573ce6301)" style="fill: none; stroke: #b0b0b0; stroke-width: 0.8; stroke-linecap: square"/>
     </g>
     <g id="line2d_35">
      <g>
       <use xlink:href="#mb6a793ce25" x="165.144291" y="277.111219" style="stroke: #000000; stroke-width: 0.8"/>
      </g>
     </g>
     <g id="text_3">
      <!-- 20 -->
      <g transform="translate(158.781791 291.709656) scale(0.1 -0.1)">
       <use xlink:href="#DejaVuSans-32"/>
       <use xlink:href="#DejaVuSans-30" transform="translate(63.623047 0)"/>
      </g>
     </g>
    </g>
    <g id="xtick_4">
     <g id="line2d_36">
      <path d="M 219.298511 277.111219 
L 219.298511 10.999219 
" clip-path="url(#p1573ce6301)" style="fill: none; stroke: #b0b0b0; stroke-width: 0.8; stroke-linecap: square"/>
     </g>
     <g id="line2d_37">
      <g>
       <use xlink:href="#mb6a793ce25" x="219.298511" y="277.111219" style="stroke: #000000; stroke-width: 0.8"/>
      </g>
     </g>
     <g id="text_4">
      <!-- 40 -->
      <g transform="translate(212.936011 291.709656) scale(0.1 -0.1)">
       <defs>
        <path id="DejaVuSans-34" d="M 2419 4116 
L 825 1625 
L 2419 1625 
L 2419 4116 
z
M 2253 4666 
L 3047 4666 
L 3047 1625 
L 3713 1625 
L 3713 1100 
L 3047 1100 
L 3047 0 
L 2419 0 
L 2419 1100 
L 313 1100 
L 313 1709 
L 2253 4666 
z
" transform="scale(0.015625)"/>
       </defs>
       <use xlink:href="#DejaVuSans-34"/>
       <use xlink:href="#DejaVuSans-30" transform="translate(63.623047 0)"/>
      </g>
     </g>
    </g>
    <g id="xtick_5">
     <g id="line2d_38">
      <path d="M 273.45273 277.111219 
L 273.45273 10.999219 
" clip-path="url(#p1573ce6301)" style="fill: none; stroke: #b0b0b0; stroke-width: 0.8; stroke-linecap: square"/>
     </g>
     <g id="line2d_39">
      <g>
       <use xlink:href="#mb6a793ce25" x="273.45273" y="277.111219" style="stroke: #000000; stroke-width: 0.8"/>
      </g>
     </g>
     <g id="text_5">
      <!-- 60 -->
      <g transform="translate(267.09023 291.709656) scale(0.1 -0.1)">
       <defs>
        <path id="DejaVuSans-36" d="M 2113 2584 
Q 1688 2584 1439 2293 
Q 1191 2003 1191 1497 
Q 1191 994 1439 701 
Q 1688 409 2113 409 
Q 2538 409 2786 701 
Q 3034 994 3034 1497 
Q 3034 2003 2786 2293 
Q 2538 2584 2113 2584 
z
M 3366 4563 
L 3366 3988 
Q 3128 4100 2886 4159 
Q 2644 4219 2406 4219 
Q 1781 4219 1451 3797 
Q 1122 3375 1075 2522 
Q 1259 2794 1537 2939 
Q 1816 3084 2150 3084 
Q 2853 3084 3261 2657 
Q 3669 2231 3669 1497 
Q 3669 778 3244 343 
Q 2819 -91 2113 -91 
Q 1303 -91 875 529 
Q 447 1150 447 2328 
Q 447 3434 972 4092 
Q 1497 4750 2381 4750 
Q 2619 4750 2861 4703 
Q 3103 4656 3366 4563 
z
" transform="scale(0.015625)"/>
       </defs>
       <use xlink:href="#DejaVuSans-36"/>
       <use xlink:href="#DejaVuSans-30" transform="translate(63.623047 0)"/>
      </g>
     </g>
    </g>
    <g id="xtick_6">
     <g id="line2d_40">
      <path d="M 327.606949 277.111219 
L 327.606949 10.999219 
" clip-path="url(#p1573ce6301)" style="fill: none; stroke: #b0b0b0; stroke-width: 0.8; stroke-linecap: square"/>
     </g>
     <g id="line2d_41">
      <g>
       <use xlink:href="#mb6a793ce25" x="327.606949" y="277.111219" style="stroke: #000000; stroke-width: 0.8"/>
      </g>
     </g>
     <g id="text_6">
      <!-- 80 -->
      <g transform="translate(321.244449 291.709656) scale(0.1 -0.1)">
       <defs>
        <path id="DejaVuSans-38" d="M 2034 2216 
Q 1584 2216 1326 1975 
Q 1069 1734 1069 1313 
Q 1069 891 1326 650 
Q 1584 409 2034 409 
Q 2484 409 2743 651 
Q 3003 894 3003 1313 
Q 3003 1734 2745 1975 
Q 2488 2216 2034 2216 
z
M 1403 2484 
Q 997 2584 770 2862 
Q 544 3141 544 3541 
Q 544 4100 942 4425 
Q 1341 4750 2034 4750 
Q 2731 4750 3128 4425 
Q 3525 4100 3525 3541 
Q 3525 3141 3298 2862 
Q 3072 2584 2669 2484 
Q 3125 2378 3379 2068 
Q 3634 1759 3634 1313 
Q 3634 634 3220 271 
Q 2806 -91 2034 -91 
Q 1263 -91 848 271 
Q 434 634 434 1313 
Q 434 1759 690 2068 
Q 947 2378 1403 2484 
z
M 1172 3481 
Q 1172 3119 1398 2916 
Q 1625 2713 2034 2713 
Q 2441 2713 2670 2916 
Q 2900 3119 2900 3481 
Q 2900 3844 2670 4047 
Q 2441 4250 2034 4250 
Q 1625 4250 1398 4047 
Q 1172 3844 1172 3481 
z
" transform="scale(0.015625)"/>
       </defs>
       <use xlink:href="#DejaVuSans-38"/>
       <use xlink:href="#DejaVuSans-30" transform="translate(63.623047 0)"/>
      </g>
     </g>
    </g>
    <g id="xtick_7">
     <g id="line2d_42">
      <path d="M 381.761169 277.111219 
L 381.761169 10.999219 
" clip-path="url(#p1573ce6301)" style="fill: none; stroke: #b0b0b0; stroke-width: 0.8; stroke-linecap: square"/>
     </g>
     <g id="line2d_43">
      <g>
       <use xlink:href="#mb6a793ce25" x="381.761169" y="277.111219" style="stroke: #000000; stroke-width: 0.8"/>
      </g>
     </g>
     <g id="text_7">
      <!-- 100 -->
      <g transform="translate(372.217419 291.709656) scale(0.1 -0.1)">
       <defs>
        <path id="DejaVuSans-31" d="M 794 531 
L 1825 531 
L 1825 4091 
L 703 3866 
L 703 4441 
L 1819 4666 
L 2450 4666 
L 2450 531 
L 3481 531 
L 3481 0 
L 794 0 
L 794 531 
z
" transform="scale(0.015625)"/>
       </defs>
       <use xlink:href="#DejaVuSans-31"/>
       <use xlink:href="#DejaVuSans-30" transform="translate(63.623047 0)"/>
       <use xlink:href="#DejaVuSans-30" transform="translate(127.246094 0)"/>
      </g>
     </g>
    </g>
    <g id="text_8">
     <!-- Time [thousands of years] -->
     <g transform="translate(153.707656 305.387781) scale(0.1 -0.1)">
      <defs>
       <path id="DejaVuSans-54" d="M -19 4666 
L 3928 4666 
L 3928 4134 
L 2272 4134 
L 2272 0 
L 1638 0 
L 1638 4134 
L -19 4134 
L -19 4666 
z
" transform="scale(0.015625)"/>
       <path id="DejaVuSans-69" d="M 603 3500 
L 1178 3500 
L 1178 0 
L 603 0 
L 603 3500 
z
M 603 4863 
L 1178 4863 
L 1178 4134 
L 603 4134 
L 603 4863 
z
" transform="scale(0.015625)"/>
       <path id="DejaVuSans-6d" d="M 3328 2828 
Q 3544 3216 3844 3400 
Q 4144 3584 4550 3584 
Q 5097 3584 5394 3201 
Q 5691 2819 5691 2113 
L 5691 0 
L 5113 0 
L 5113 2094 
Q 5113 2597 4934 2840 
Q 4756 3084 4391 3084 
Q 3944 3084 3684 2787 
Q 3425 2491 3425 1978 
L 3425 0 
L 2847 0 
L 2847 2094 
Q 2847 2600 2669 2842 
Q 2491 3084 2119 3084 
Q 1678 3084 1418 2786 
Q 1159 2488 1159 1978 
L 1159 0 
L 581 0 
L 581 3500 
L 1159 3500 
L 1159 2956 
Q 1356 3278 1631 3431 
Q 1906 3584 2284 3584 
Q 2666 3584 2933 3390 
Q 3200 3197 3328 2828 
z
" transform="scale(0.015625)"/>
       <path id="DejaVuSans-65" d="M 3597 1894 
L 3597 1613 
L 953 1613 
Q 991 1019 1311 708 
Q 1631 397 2203 397 
Q 2534 397 2845 478 
Q 3156 559 3463 722 
L 3463 178 
Q 3153 47 2828 -22 
Q 2503 -91 2169 -91 
Q 1331 -91 842 396 
Q 353 884 353 1716 
Q 353 2575 817 3079 
Q 1281 3584 2069 3584 
Q 2775 3584 3186 3129 
Q 3597 2675 3597 1894 
z
M 3022 2063 
Q 3016 2534 2758 2815 
Q 2500 3097 2075 3097 
Q 1594 3097 1305 2825 
Q 1016 2553 972 2059 
L 3022 2063 
z
" transform="scale(0.015625)"/>
       <path id="DejaVuSans-20" transform="scale(0.015625)"/>
       <path id="DejaVuSans-5b" d="M 550 4863 
L 1875 4863 
L 1875 4416 
L 1125 4416 
L 1125 -397 
L 1875 -397 
L 1875 -844 
L 550 -844 
L 550 4863 
z
" transform="scale(0.015625)"/>
       <path id="DejaVuSans-74" d="M 1172 4494 
L 1172 3500 
L 2356 3500 
L 2356 3053 
L 1172 3053 
L 1172 1153 
Q 1172 725 1289 603 
Q 1406 481 1766 481 
L 2356 481 
L 2356 0 
L 1766 0 
Q 1100 0 847 248 
Q 594 497 594 1153 
L 594 3053 
L 172 3053 
L 172 3500 
L 594 3500 
L 594 4494 
L 1172 4494 
z
" transform="scale(0.015625)"/>
       <path id="DejaVuSans-68" d="M 3513 2113 
L 3513 0 
L 2938 0 
L 2938 2094 
Q 2938 2591 2744 2837 
Q 2550 3084 2163 3084 
Q 1697 3084 1428 2787 
Q 1159 2491 1159 1978 
L 1159 0 
L 581 0 
L 581 4863 
L 1159 4863 
L 1159 2956 
Q 1366 3272 1645 3428 
Q 1925 3584 2291 3584 
Q 2894 3584 3203 3211 
Q 3513 2838 3513 2113 
z
" transform="scale(0.015625)"/>
       <path id="DejaVuSans-6f" d="M 1959 3097 
Q 1497 3097 1228 2736 
Q 959 2375 959 1747 
Q 959 1119 1226 758 
Q 1494 397 1959 397 
Q 2419 397 2687 759 
Q 2956 1122 2956 1747 
Q 2956 2369 2687 2733 
Q 2419 3097 1959 3097 
z
M 1959 3584 
Q 2709 3584 3137 3096 
Q 3566 2609 3566 1747 
Q 3566 888 3137 398 
Q 2709 -91 1959 -91 
Q 1206 -91 779 398 
Q 353 888 353 1747 
Q 353 2609 779 3096 
Q 1206 3584 1959 3584 
z
" transform="scale(0.015625)"/>
       <path id="DejaVuSans-75" d="M 544 1381 
L 544 3500 
L 1119 3500 
L 1119 1403 
Q 1119 906 1312 657 
Q 1506 409 1894 409 
Q 2359 409 2629 706 
Q 2900 1003 2900 1516 
L 2900 3500 
L 3475 3500 
L 3475 0 
L 2900 0 
L 2900 538 
Q 2691 219 2414 64 
Q 2138 -91 1772 -91 
Q 1169 -91 856 284 
Q 544 659 544 1381 
z
M 1991 3584 
L 1991 3584 
z
" transform="scale(0.015625)"/>
       <path id="DejaVuSans-73" d="M 2834 3397 
L 2834 2853 
Q 2591 2978 2328 3040 
Q 2066 3103 1784 3103 
Q 1356 3103 1142 2972 
Q 928 2841 928 2578 
Q 928 2378 1081 2264 
Q 1234 2150 1697 2047 
L 1894 2003 
Q 2506 1872 2764 1633 
Q 3022 1394 3022 966 
Q 3022 478 2636 193 
Q 2250 -91 1575 -91 
Q 1294 -91 989 -36 
Q 684 19 347 128 
L 347 722 
Q 666 556 975 473 
Q 1284 391 1588 391 
Q 1994 391 2212 530 
Q 2431 669 2431 922 
Q 2431 1156 2273 1281 
Q 2116 1406 1581 1522 
L 1381 1569 
Q 847 1681 609 1914 
Q 372 2147 372 2553 
Q 372 3047 722 3315 
Q 1072 3584 1716 3584 
Q 2034 3584 2315 3537 
Q 2597 3491 2834 3397 
z
" transform="scale(0.015625)"/>
       <path id="DejaVuSans-61" d="M 2194 1759 
Q 1497 1759 1228 1600 
Q 959 1441 959 1056 
Q 959 750 1161 570 
Q 1363 391 1709 391 
Q 2188 391 2477 730 
Q 2766 1069 2766 1631 
L 2766 1759 
L 2194 1759 
z
M 3341 1997 
L 3341 0 
L 2766 0 
L 2766 531 
Q 2569 213 2275 61 
Q 1981 -91 1556 -91 
Q 1019 -91 701 211 
Q 384 513 384 1019 
Q 384 1609 779 1909 
Q 1175 2209 1959 2209 
L 2766 2209 
L 2766 2266 
Q 2766 2663 2505 2880 
Q 2244 3097 1772 3097 
Q 1472 3097 1187 3025 
Q 903 2953 641 2809 
L 641 3341 
Q 956 3463 1253 3523 
Q 1550 3584 1831 3584 
Q 2591 3584 2966 3190 
Q 3341 2797 3341 1997 
z
" transform="scale(0.015625)"/>
       <path id="DejaVuSans-6e" d="M 3513 2113 
L 3513 0 
L 2938 0 
L 2938 2094 
Q 2938 2591 2744 2837 
Q 2550 3084 2163 3084 
Q 1697 3084 1428 2787 
Q 1159 2491 1159 1978 
L 1159 0 
L 581 0 
L 581 3500 
L 1159 3500 
L 1159 2956 
Q 1366 3272 1645 3428 
Q 1925 3584 2291 3584 
Q 2894 3584 3203 3211 
Q 3513 2838 3513 2113 
z
" transform="scale(0.015625)"/>
       <path id="DejaVuSans-64" d="M 2906 2969 
L 2906 4863 
L 3481 4863 
L 3481 0 
L 2906 0 
L 2906 525 
Q 2725 213 2448 61 
Q 2172 -91 1784 -91 
Q 1150 -91 751 415 
Q 353 922 353 1747 
Q 353 2572 751 3078 
Q 1150 3584 1784 3584 
Q 2172 3584 2448 3432 
Q 2725 3281 2906 2969 
z
M 947 1747 
Q 947 1113 1208 752 
Q 1469 391 1925 391 
Q 2381 391 2643 752 
Q 2906 1113 2906 1747 
Q 2906 2381 2643 2742 
Q 2381 3103 1925 3103 
Q 1469 3103 1208 2742 
Q 947 2381 947 1747 
z
" transform="scale(0.015625)"/>
       <path id="DejaVuSans-66" d="M 2375 4863 
L 2375 4384 
L 1825 4384 
Q 1516 4384 1395 4259 
Q 1275 4134 1275 3809 
L 1275 3500 
L 2222 3500 
L 2222 3053 
L 1275 3053 
L 1275 0 
L 697 0 
L 697 3053 
L 147 3053 
L 147 3500 
L 697 3500 
L 697 3744 
Q 697 4328 969 4595 
Q 1241 4863 1831 4863 
L 2375 4863 
z
" transform="scale(0.015625)"/>
       <path id="DejaVuSans-79" d="M 2059 -325 
Q 1816 -950 1584 -1140 
Q 1353 -1331 966 -1331 
L 506 -1331 
L 506 -850 
L 844 -850 
Q 1081 -850 1212 -737 
Q 1344 -625 1503 -206 
L 1606 56 
L 191 3500 
L 800 3500 
L 1894 763 
L 2988 3500 
L 3597 3500 
L 2059 -325 
z
" transform="scale(0.015625)"/>
       <path id="DejaVuSans-72" d="M 2631 2963 
Q 2534 3019 2420 3045 
Q 2306 3072 2169 3072 
Q 1681 3072 1420 2755 
Q 1159 2438 1159 1844 
L 1159 0 
L 581 0 
L 581 3500 
L 1159 3500 
L 1159 2956 
Q 1341 3275 1631 3429 
Q 1922 3584 2338 3584 
Q 2397 3584 2469 3576 
Q 2541 3569 2628 3553 
L 2631 2963 
z
" transform="scale(0.015625)"/>
       <path id="DejaVuSans-5d" d="M 1947 4863 
L 1947 -844 
L 622 -844 
L 622 -397 
L 1369 -397 
L 1369 4416 
L 622 4416 
L 622 4863 
L 1947 4863 
z
" transform="scale(0.015625)"/>
      </defs>
      <use xlink:href="#DejaVuSans-54"/>
      <use xlink:href="#DejaVuSans-69" transform="translate(57.958984 0)"/>
      <use xlink:href="#DejaVuSans-6d" transform="translate(85.742188 0)"/>
      <use xlink:href="#DejaVuSans-65" transform="translate(183.154297 0)"/>
      <use xlink:href="#DejaVuSans-20" transform="translate(244.677734 0)"/>
      <use xlink:href="#DejaVuSans-5b" transform="translate(276.464844 0)"/>
      <use xlink:href="#DejaVuSans-74" transform="translate(315.478516 0)"/>
      <use xlink:href="#DejaVuSans-68" transform="translate(354.6875 0)"/>
      <use xlink:href="#DejaVuSans-6f" transform="translate(418.066406 0)"/>
      <use xlink:href="#DejaVuSans-75" transform="translate(479.248047 0)"/>
      <use xlink:href="#DejaVuSans-73" transform="translate(542.626953 0)"/>
      <use xlink:href="#DejaVuSans-61" transform="translate(594.726562 0)"/>
      <use xlink:href="#DejaVuSans-6e" transform="translate(656.005859 0)"/>
      <use xlink:href="#DejaVuSans-64" transform="translate(719.384766 0)"/>
      <use xlink:href="#DejaVuSans-73" transform="translate(782.861328 0)"/>
      <use xlink:href="#DejaVuSans-20" transform="translate(834.960938 0)"/>
      <use xlink:href="#DejaVuSans-6f" transform="translate(866.748047 0)"/>
      <use xlink:href="#DejaVuSans-66" transform="translate(927.929688 0)"/>
      <use xlink:href="#DejaVuSans-20" transform="translate(963.134766 0)"/>
      <use xlink:href="#DejaVuSans-79" transform="translate(994.921875 0)"/>
      <use xlink:href="#DejaVuSans-65" transform="translate(1054.101562 0)"/>
      <use xlink:href="#DejaVuSans-61" transform="translate(1115.625 0)"/>
      <use xlink:href="#DejaVuSans-72" transform="translate(1176.904297 0)"/>
      <use xlink:href="#DejaVuSans-73" transform="translate(1218.017578 0)"/>
      <use xlink:href="#DejaVuSans-5d" transform="translate(1270.117188 0)"/>
     </g>
    </g>
   </g>
   <g id="matplotlib.axis_2">
    <g id="ytick_1">
     <g id="line2d_44">
      <path d="M 40.603125 277.111219 
L 397.723125 277.111219 
" clip-path="url(#p1573ce6301)" style="fill: none; stroke: #b0b0b0; stroke-width: 0.8; stroke-linecap: square"/>
     </g>
     <g id="line2d_45">
      <defs>
       <path id="mf2761b80d8" d="M 0 0 
L -3.5 0 
" style="stroke: #000000; stroke-width: 0.8"/>
      </defs>
      <g>
       <use xlink:href="#mf2761b80d8" x="40.603125" y="277.111219" style="stroke: #000000; stroke-width: 0.8"/>
      </g>
     </g>
     <g id="text_9">
      <!-- 0 -->
      <g transform="translate(27.240625 280.910437) scale(0.1 -0.1)">
       <use xlink:href="#DejaVuSans-30"/>
      </g>
     </g>
    </g>
    <g id="ytick_2">
     <g id="line2d_46">
      <path d="M 40.603125 223.888819 
L 397.723125 223.888819 
" clip-path="url(#p1573ce6301)" style="fill: none; stroke: #b0b0b0; stroke-width: 0.8; stroke-linecap: square"/>
     </g>
     <g id="line2d_47">
      <g>
       <use xlink:href="#mf2761b80d8" x="40.603125" y="223.888819" style="stroke: #000000; stroke-width: 0.8"/>
      </g>
     </g>
     <g id="text_10">
      <!-- 2 -->
      <g transform="translate(27.240625 227.688037) scale(0.1 -0.1)">
       <use xlink:href="#DejaVuSans-32"/>
      </g>
     </g>
    </g>
    <g id="ytick_3">
     <g id="line2d_48">
      <path d="M 40.603125 170.666419 
L 397.723125 170.666419 
" clip-path="url(#p1573ce6301)" style="fill: none; stroke: #b0b0b0; stroke-width: 0.8; stroke-linecap: square"/>
     </g>
     <g id="line2d_49">
      <g>
       <use xlink:href="#mf2761b80d8" x="40.603125" y="170.666419" style="stroke: #000000; stroke-width: 0.8"/>
      </g>
     </g>
     <g id="text_11">
      <!-- 4 -->
      <g transform="translate(27.240625 174.465637) scale(0.1 -0.1)">
       <use xlink:href="#DejaVuSans-34"/>
      </g>
     </g>
    </g>
    <g id="ytick_4">
     <g id="line2d_50">
      <path d="M 40.603125 117.444019 
L 397.723125 117.444019 
" clip-path="url(#p1573ce6301)" style="fill: none; stroke: #b0b0b0; stroke-width: 0.8; stroke-linecap: square"/>
     </g>
     <g id="line2d_51">
      <g>
       <use xlink:href="#mf2761b80d8" x="40.603125" y="117.444019" style="stroke: #000000; stroke-width: 0.8"/>
      </g>
     </g>
     <g id="text_12">
      <!-- 6 -->
      <g transform="translate(27.240625 121.243237) scale(0.1 -0.1)">
       <use xlink:href="#DejaVuSans-36"/>
      </g>
     </g>
    </g>
    <g id="ytick_5">
     <g id="line2d_52">
      <path d="M 40.603125 64.221619 
L 397.723125 64.221619 
" clip-path="url(#p1573ce6301)" style="fill: none; stroke: #b0b0b0; stroke-width: 0.8; stroke-linecap: square"/>
     </g>
     <g id="line2d_53">
      <g>
       <use xlink:href="#mf2761b80d8" x="40.603125" y="64.221619" style="stroke: #000000; stroke-width: 0.8"/>
      </g>
     </g>
     <g id="text_13">
      <!-- 8 -->
      <g transform="translate(27.240625 68.020837) scale(0.1 -0.1)">
       <use xlink:href="#DejaVuSans-38"/>
      </g>
     </g>
    </g>
    <g id="ytick_6">
     <g id="line2d_54">
      <path d="M 40.603125 10.999219 
L 397.723125 10.999219 
" clip-path="url(#p1573ce6301)" style="fill: none; stroke: #b0b0b0; stroke-width: 0.8; stroke-linecap: square"/>
     </g>
     <g id="line2d_55">
      <g>
       <use xlink:href="#mf2761b80d8" x="40.603125" y="10.999219" style="stroke: #000000; stroke-width: 0.8"/>
      </g>
     </g>
     <g id="text_14">
      <!-- 10 -->
      <g transform="translate(20.878125 14.798437) scale(0.1 -0.1)">
       <use xlink:href="#DejaVuSans-31"/>
       <use xlink:href="#DejaVuSans-30" transform="translate(63.623047 0)"/>
      </g>
     </g>
    </g>
    <g id="text_15">
     <!-- Distance to Sun [in light years] -->
     <g transform="translate(14.798437 221.695062) rotate(-90) scale(0.1 -0.1)">
      <defs>
       <path id="DejaVuSans-44" d="M 1259 4147 
L 1259 519 
L 2022 519 
Q 2988 519 3436 956 
Q 3884 1394 3884 2338 
Q 3884 3275 3436 3711 
Q 2988 4147 2022 4147 
L 1259 4147 
z
M 628 4666 
L 1925 4666 
Q 3281 4666 3915 4102 
Q 4550 3538 4550 2338 
Q 4550 1131 3912 565 
Q 3275 0 1925 0 
L 628 0 
L 628 4666 
z
" transform="scale(0.015625)"/>
       <path id="DejaVuSans-63" d="M 3122 3366 
L 3122 2828 
Q 2878 2963 2633 3030 
Q 2388 3097 2138 3097 
Q 1578 3097 1268 2742 
Q 959 2388 959 1747 
Q 959 1106 1268 751 
Q 1578 397 2138 397 
Q 2388 397 2633 464 
Q 2878 531 3122 666 
L 3122 134 
Q 2881 22 2623 -34 
Q 2366 -91 2075 -91 
Q 1284 -91 818 406 
Q 353 903 353 1747 
Q 353 2603 823 3093 
Q 1294 3584 2113 3584 
Q 2378 3584 2631 3529 
Q 2884 3475 3122 3366 
z
" transform="scale(0.015625)"/>
       <path id="DejaVuSans-53" d="M 3425 4513 
L 3425 3897 
Q 3066 4069 2747 4153 
Q 2428 4238 2131 4238 
Q 1616 4238 1336 4038 
Q 1056 3838 1056 3469 
Q 1056 3159 1242 3001 
Q 1428 2844 1947 2747 
L 2328 2669 
Q 3034 2534 3370 2195 
Q 3706 1856 3706 1288 
Q 3706 609 3251 259 
Q 2797 -91 1919 -91 
Q 1588 -91 1214 -16 
Q 841 59 441 206 
L 441 856 
Q 825 641 1194 531 
Q 1563 422 1919 422 
Q 2459 422 2753 634 
Q 3047 847 3047 1241 
Q 3047 1584 2836 1778 
Q 2625 1972 2144 2069 
L 1759 2144 
Q 1053 2284 737 2584 
Q 422 2884 422 3419 
Q 422 4038 858 4394 
Q 1294 4750 2059 4750 
Q 2388 4750 2728 4690 
Q 3069 4631 3425 4513 
z
" transform="scale(0.015625)"/>
       <path id="DejaVuSans-6c" d="M 603 4863 
L 1178 4863 
L 1178 0 
L 603 0 
L 603 4863 
z
" transform="scale(0.015625)"/>
       <path id="DejaVuSans-67" d="M 2906 1791 
Q 2906 2416 2648 2759 
Q 2391 3103 1925 3103 
Q 1463 3103 1205 2759 
Q 947 2416 947 1791 
Q 947 1169 1205 825 
Q 1463 481 1925 481 
Q 2391 481 2648 825 
Q 2906 1169 2906 1791 
z
M 3481 434 
Q 3481 -459 3084 -895 
Q 2688 -1331 1869 -1331 
Q 1566 -1331 1297 -1286 
Q 1028 -1241 775 -1147 
L 775 -588 
Q 1028 -725 1275 -790 
Q 1522 -856 1778 -856 
Q 2344 -856 2625 -561 
Q 2906 -266 2906 331 
L 2906 616 
Q 2728 306 2450 153 
Q 2172 0 1784 0 
Q 1141 0 747 490 
Q 353 981 353 1791 
Q 353 2603 747 3093 
Q 1141 3584 1784 3584 
Q 2172 3584 2450 3431 
Q 2728 3278 2906 2969 
L 2906 3500 
L 3481 3500 
L 3481 434 
z
" transform="scale(0.015625)"/>
      </defs>
      <use xlink:href="#DejaVuSans-44"/>
      <use xlink:href="#DejaVuSans-69" transform="translate(77.001953 0)"/>
      <use xlink:href="#DejaVuSans-73" transform="translate(104.785156 0)"/>
      <use xlink:href="#DejaVuSans-74" transform="translate(156.884766 0)"/>
      <use xlink:href="#DejaVuSans-61" transform="translate(196.09375 0)"/>
      <use xlink:href="#DejaVuSans-6e" transform="translate(257.373047 0)"/>
      <use xlink:href="#DejaVuSans-63" transform="translate(320.751953 0)"/>
      <use xlink:href="#DejaVuSans-65" transform="translate(375.732422 0)"/>
      <use xlink:href="#DejaVuSans-20" transform="translate(437.255859 0)"/>
      <use xlink:href="#DejaVuSans-74" transform="translate(469.042969 0)"/>
      <use xlink:href="#DejaVuSans-6f" transform="translate(508.251953 0)"/>
      <use xlink:href="#DejaVuSans-20" transform="translate(569.433594 0)"/>
      <use xlink:href="#DejaVuSans-53" transform="translate(601.220703 0)"/>
      <use xlink:href="#DejaVuSans-75" transform="translate(664.697266 0)"/>
      <use xlink:href="#DejaVuSans-6e" transform="translate(728.076172 0)"/>
      <use xlink:href="#DejaVuSans-20" transform="translate(791.455078 0)"/>
      <use xlink:href="#DejaVuSans-5b" transform="translate(823.242188 0)"/>
      <use xlink:href="#DejaVuSans-69" transform="translate(862.255859 0)"/>
      <use xlink:href="#DejaVuSans-6e" transform="translate(890.039062 0)"/>
      <use xlink:href="#DejaVuSans-20" transform="translate(953.417969 0)"/>
      <use xlink:href="#DejaVuSans-6c" transform="translate(985.205078 0)"/>
      <use xlink:href="#DejaVuSans-69" transform="translate(1012.988281 0)"/>
      <use xlink:href="#DejaVuSans-67" transform="translate(1040.771484 0)"/>
      <use xlink:href="#DejaVuSans-68" transform="translate(1104.248047 0)"/>
      <use xlink:href="#DejaVuSans-74" transform="translate(1167.626953 0)"/>
      <use xlink:href="#DejaVuSans-20" transform="translate(1206.835938 0)"/>
      <use xlink:href="#DejaVuSans-79" transform="translate(1238.623047 0)"/>
      <use xlink:href="#DejaVuSans-65" transform="translate(1297.802734 0)"/>
      <use xlink:href="#DejaVuSans-61" transform="translate(1359.326172 0)"/>
      <use xlink:href="#DejaVuSans-72" transform="translate(1420.605469 0)"/>
      <use xlink:href="#DejaVuSans-73" transform="translate(1461.71875 0)"/>
      <use xlink:href="#DejaVuSans-5d" transform="translate(1513.818359 0)"/>
     </g>
    </g>
   </g>
   <g id="patch_3">
    <path d="M 40.603125 277.111219 
L 40.603125 10.999219 
" style="fill: none; stroke: #000000; stroke-width: 0.8; stroke-linejoin: miter; stroke-linecap: square"/>
   </g>
   <g id="patch_4">
    <path d="M 397.723125 277.111219 
L 397.723125 10.999219 
" style="fill: none; stroke: #000000; stroke-width: 0.8; stroke-linejoin: miter; stroke-linecap: square"/>
   </g>
   <g id="patch_5">
    <path d="M 40.603125 277.111219 
L 397.723125 277.111219 
" style="fill: none; stroke: #000000; stroke-width: 0.8; stroke-linejoin: miter; stroke-linecap: square"/>
   </g>
   <g id="patch_6">
    <path d="M 40.603125 10.999219 
L 397.723125 10.999219 
" style="fill: none; stroke: #000000; stroke-width: 0.8; stroke-linejoin: miter; stroke-linecap: square"/>
   </g>
   <g id="text_16">
    <!-- Proxima Centauri -->
    <g transform="translate(175.531844 190.584791) scale(0.03 -0.03)">
     <defs>
      <path id="DejaVuSans-50" d="M 1259 4147 
L 1259 2394 
L 2053 2394 
Q 2494 2394 2734 2622 
Q 2975 2850 2975 3272 
Q 2975 3691 2734 3919 
Q 2494 4147 2053 4147 
L 1259 4147 
z
M 628 4666 
L 2053 4666 
Q 2838 4666 3239 4311 
Q 3641 3956 3641 3272 
Q 3641 2581 3239 2228 
Q 2838 1875 2053 1875 
L 1259 1875 
L 1259 0 
L 628 0 
L 628 4666 
z
" transform="scale(0.015625)"/>
      <path id="DejaVuSans-78" d="M 3513 3500 
L 2247 1797 
L 3578 0 
L 2900 0 
L 1881 1375 
L 863 0 
L 184 0 
L 1544 1831 
L 300 3500 
L 978 3500 
L 1906 2253 
L 2834 3500 
L 3513 3500 
z
" transform="scale(0.015625)"/>
      <path id="DejaVuSans-43" d="M 4122 4306 
L 4122 3641 
Q 3803 3938 3442 4084 
Q 3081 4231 2675 4231 
Q 1875 4231 1450 3742 
Q 1025 3253 1025 2328 
Q 1025 1406 1450 917 
Q 1875 428 2675 428 
Q 3081 428 3442 575 
Q 3803 722 4122 1019 
L 4122 359 
Q 3791 134 3420 21 
Q 3050 -91 2638 -91 
Q 1578 -91 968 557 
Q 359 1206 359 2328 
Q 359 3453 968 4101 
Q 1578 4750 2638 4750 
Q 3056 4750 3426 4639 
Q 3797 4528 4122 4306 
z
" transform="scale(0.015625)"/>
     </defs>
     <use xlink:href="#DejaVuSans-50"/>
     <use xlink:href="#DejaVuSans-72" transform="translate(58.552734 0)"/>
     <use xlink:href="#DejaVuSans-6f" transform="translate(97.416016 0)"/>
     <use xlink:href="#DejaVuSans-78" transform="translate(155.472656 0)"/>
     <use xlink:href="#DejaVuSans-69" transform="translate(214.652344 0)"/>
     <use xlink:href="#DejaVuSans-6d" transform="translate(242.435547 0)"/>
     <use xlink:href="#DejaVuSans-61" transform="translate(339.847656 0)"/>
     <use xlink:href="#DejaVuSans-20" transform="translate(401.126953 0)"/>
     <use xlink:href="#DejaVuSans-43" transform="translate(432.914062 0)"/>
     <use xlink:href="#DejaVuSans-65" transform="translate(502.738281 0)"/>
     <use xlink:href="#DejaVuSans-6e" transform="translate(564.261719 0)"/>
     <use xlink:href="#DejaVuSans-74" transform="translate(627.640625 0)"/>
     <use xlink:href="#DejaVuSans-61" transform="translate(666.849609 0)"/>
     <use xlink:href="#DejaVuSans-75" transform="translate(728.128906 0)"/>
     <use xlink:href="#DejaVuSans-72" transform="translate(791.507812 0)"/>
     <use xlink:href="#DejaVuSans-69" transform="translate(832.621094 0)"/>
    </g>
   </g>
   <g id="text_17">
    <!-- Toliman -->
    <g transform="translate(183.020147 207.357981) scale(0.03 -0.03)">
     <use xlink:href="#DejaVuSans-54"/>
     <use xlink:href="#DejaVuSans-6f" transform="translate(44.083984 0)"/>
     <use xlink:href="#DejaVuSans-6c" transform="translate(105.265625 0)"/>
     <use xlink:href="#DejaVuSans-69" transform="translate(133.048828 0)"/>
     <use xlink:href="#DejaVuSans-6d" transform="translate(160.832031 0)"/>
     <use xlink:href="#DejaVuSans-61" transform="translate(258.244141 0)"/>
     <use xlink:href="#DejaVuSans-6e" transform="translate(319.523438 0)"/>
    </g>
   </g>
   <g id="text_18">
    <!-- Barnard's Star -->
    <g transform="translate(135.271178 186.306169) scale(0.03 -0.03)">
     <defs>
      <path id="DejaVuSans-42" d="M 1259 2228 
L 1259 519 
L 2272 519 
Q 2781 519 3026 730 
Q 3272 941 3272 1375 
Q 3272 1813 3026 2020 
Q 2781 2228 2272 2228 
L 1259 2228 
z
M 1259 4147 
L 1259 2741 
L 2194 2741 
Q 2656 2741 2882 2914 
Q 3109 3088 3109 3444 
Q 3109 3797 2882 3972 
Q 2656 4147 2194 4147 
L 1259 4147 
z
M 628 4666 
L 2241 4666 
Q 2963 4666 3353 4366 
Q 3744 4066 3744 3513 
Q 3744 3084 3544 2831 
Q 3344 2578 2956 2516 
Q 3422 2416 3680 2098 
Q 3938 1781 3938 1306 
Q 3938 681 3513 340 
Q 3088 0 2303 0 
L 628 0 
L 628 4666 
z
" transform="scale(0.015625)"/>
      <path id="DejaVuSans-27" d="M 1147 4666 
L 1147 2931 
L 616 2931 
L 616 4666 
L 1147 4666 
z
" transform="scale(0.015625)"/>
     </defs>
     <use xlink:href="#DejaVuSans-42"/>
     <use xlink:href="#DejaVuSans-61" transform="translate(68.603516 0)"/>
     <use xlink:href="#DejaVuSans-72" transform="translate(129.882812 0)"/>
     <use xlink:href="#DejaVuSans-6e" transform="translate(169.246094 0)"/>
     <use xlink:href="#DejaVuSans-61" transform="translate(232.625 0)"/>
     <use xlink:href="#DejaVuSans-72" transform="translate(293.904297 0)"/>
     <use xlink:href="#DejaVuSans-64" transform="translate(333.267578 0)"/>
     <use xlink:href="#DejaVuSans-27" transform="translate(396.744141 0)"/>
     <use xlink:href="#DejaVuSans-73" transform="translate(424.234375 0)"/>
     <use xlink:href="#DejaVuSans-20" transform="translate(476.333984 0)"/>
     <use xlink:href="#DejaVuSans-53" transform="translate(508.121094 0)"/>
     <use xlink:href="#DejaVuSans-74" transform="translate(571.597656 0)"/>
     <use xlink:href="#DejaVuSans-61" transform="translate(610.806641 0)"/>
     <use xlink:href="#DejaVuSans-72" transform="translate(672.085938 0)"/>
    </g>
   </g>
   <g id="text_19">
    <!-- Lalande 21185 -->
    <g transform="translate(162.564225 158.502286) scale(0.03 -0.03)">
     <defs>
      <path id="DejaVuSans-4c" d="M 628 4666 
L 1259 4666 
L 1259 531 
L 3531 531 
L 3531 0 
L 628 0 
L 628 4666 
z
" transform="scale(0.015625)"/>
      <path id="DejaVuSans-35" d="M 691 4666 
L 3169 4666 
L 3169 4134 
L 1269 4134 
L 1269 2991 
Q 1406 3038 1543 3061 
Q 1681 3084 1819 3084 
Q 2600 3084 3056 2656 
Q 3513 2228 3513 1497 
Q 3513 744 3044 326 
Q 2575 -91 1722 -91 
Q 1428 -91 1123 -41 
Q 819 9 494 109 
L 494 744 
Q 775 591 1075 516 
Q 1375 441 1709 441 
Q 2250 441 2565 725 
Q 2881 1009 2881 1497 
Q 2881 1984 2565 2268 
Q 2250 2553 1709 2553 
Q 1456 2553 1204 2497 
Q 953 2441 691 2322 
L 691 4666 
z
" transform="scale(0.015625)"/>
     </defs>
     <use xlink:href="#DejaVuSans-4c"/>
     <use xlink:href="#DejaVuSans-61" transform="translate(55.712891 0)"/>
     <use xlink:href="#DejaVuSans-6c" transform="translate(116.992188 0)"/>
     <use xlink:href="#DejaVuSans-61" transform="translate(144.775391 0)"/>
     <use xlink:href="#DejaVuSans-6e" transform="translate(206.054688 0)"/>
     <use xlink:href="#DejaVuSans-64" transform="translate(269.433594 0)"/>
     <use xlink:href="#DejaVuSans-65" transform="translate(332.910156 0)"/>
     <use xlink:href="#DejaVuSans-20" transform="translate(394.433594 0)"/>
     <use xlink:href="#DejaVuSans-32" transform="translate(426.220703 0)"/>
     <use xlink:href="#DejaVuSans-31" transform="translate(489.84375 0)"/>
     <use xlink:href="#DejaVuSans-31" transform="translate(553.466797 0)"/>
     <use xlink:href="#DejaVuSans-38" transform="translate(617.089844 0)"/>
     <use xlink:href="#DejaVuSans-35" transform="translate(680.712891 0)"/>
    </g>
   </g>
   <g id="text_20">
    <!-- Ross 248 -->
    <g transform="translate(206.584993 202.04983) scale(0.03 -0.03)">
     <defs>
      <path id="DejaVuSans-52" d="M 2841 2188 
Q 3044 2119 3236 1894 
Q 3428 1669 3622 1275 
L 4263 0 
L 3584 0 
L 2988 1197 
Q 2756 1666 2539 1819 
Q 2322 1972 1947 1972 
L 1259 1972 
L 1259 0 
L 628 0 
L 628 4666 
L 2053 4666 
Q 2853 4666 3247 4331 
Q 3641 3997 3641 3322 
Q 3641 2881 3436 2590 
Q 3231 2300 2841 2188 
z
M 1259 4147 
L 1259 2491 
L 2053 2491 
Q 2509 2491 2742 2702 
Q 2975 2913 2975 3322 
Q 2975 3731 2742 3939 
Q 2509 4147 2053 4147 
L 1259 4147 
z
" transform="scale(0.015625)"/>
     </defs>
     <use xlink:href="#DejaVuSans-52"/>
     <use xlink:href="#DejaVuSans-6f" transform="translate(64.982422 0)"/>
     <use xlink:href="#DejaVuSans-73" transform="translate(126.164062 0)"/>
     <use xlink:href="#DejaVuSans-73" transform="translate(178.263672 0)"/>
     <use xlink:href="#DejaVuSans-20" transform="translate(230.363281 0)"/>
     <use xlink:href="#DejaVuSans-32" transform="translate(262.150391 0)"/>
     <use xlink:href="#DejaVuSans-34" transform="translate(325.773438 0)"/>
     <use xlink:href="#DejaVuSans-38" transform="translate(389.396484 0)"/>
    </g>
   </g>
   <g id="text_21">
    <!-- Ross 128 -->
    <g transform="translate(300.650004 117.36207) scale(0.03 -0.03)">
     <use xlink:href="#DejaVuSans-52"/>
     <use xlink:href="#DejaVuSans-6f" transform="translate(64.982422 0)"/>
     <use xlink:href="#DejaVuSans-73" transform="translate(126.164062 0)"/>
     <use xlink:href="#DejaVuSans-73" transform="translate(178.263672 0)"/>
     <use xlink:href="#DejaVuSans-20" transform="translate(230.363281 0)"/>
     <use xlink:href="#DejaVuSans-31" transform="translate(262.150391 0)"/>
     <use xlink:href="#DejaVuSans-32" transform="translate(325.773438 0)"/>
     <use xlink:href="#DejaVuSans-38" transform="translate(389.396484 0)"/>
    </g>
   </g>
   <g id="text_22">
    <!-- Kapteyn's Star -->
    <g transform="translate(78.734812 97.791979) scale(0.03 -0.03)">
     <defs>
      <path id="DejaVuSans-4b" d="M 628 4666 
L 1259 4666 
L 1259 2694 
L 3353 4666 
L 4166 4666 
L 1850 2491 
L 4331 0 
L 3500 0 
L 1259 2247 
L 1259 0 
L 628 0 
L 628 4666 
z
" transform="scale(0.015625)"/>
      <path id="DejaVuSans-70" d="M 1159 525 
L 1159 -1331 
L 581 -1331 
L 581 3500 
L 1159 3500 
L 1159 2969 
Q 1341 3281 1617 3432 
Q 1894 3584 2278 3584 
Q 2916 3584 3314 3078 
Q 3713 2572 3713 1747 
Q 3713 922 3314 415 
Q 2916 -91 2278 -91 
Q 1894 -91 1617 61 
Q 1341 213 1159 525 
z
M 3116 1747 
Q 3116 2381 2855 2742 
Q 2594 3103 2138 3103 
Q 1681 3103 1420 2742 
Q 1159 2381 1159 1747 
Q 1159 1113 1420 752 
Q 1681 391 2138 391 
Q 2594 391 2855 752 
Q 3116 1113 3116 1747 
z
" transform="scale(0.015625)"/>
     </defs>
     <use xlink:href="#DejaVuSans-4b"/>
     <use xlink:href="#DejaVuSans-61" transform="translate(63.826172 0)"/>
     <use xlink:href="#DejaVuSans-70" transform="translate(125.105469 0)"/>
     <use xlink:href="#DejaVuSans-74" transform="translate(188.582031 0)"/>
     <use xlink:href="#DejaVuSans-65" transform="translate(227.791016 0)"/>
     <use xlink:href="#DejaVuSans-79" transform="translate(289.314453 0)"/>
     <use xlink:href="#DejaVuSans-6e" transform="translate(348.494141 0)"/>
     <use xlink:href="#DejaVuSans-27" transform="translate(411.873047 0)"/>
     <use xlink:href="#DejaVuSans-73" transform="translate(439.363281 0)"/>
     <use xlink:href="#DejaVuSans-20" transform="translate(491.462891 0)"/>
     <use xlink:href="#DejaVuSans-53" transform="translate(523.25 0)"/>
     <use xlink:href="#DejaVuSans-74" transform="translate(586.726562 0)"/>
     <use xlink:href="#DejaVuSans-61" transform="translate(625.935547 0)"/>
     <use xlink:href="#DejaVuSans-72" transform="translate(687.214844 0)"/>
    </g>
   </g>
   <g id="text_23">
    <!-- Kruger 60 -->
    <g transform="translate(349.695243 113.302353) scale(0.03 -0.03)">
     <use xlink:href="#DejaVuSans-4b"/>
     <use xlink:href="#DejaVuSans-72" transform="translate(65.576172 0)"/>
     <use xlink:href="#DejaVuSans-75" transform="translate(106.689453 0)"/>
     <use xlink:href="#DejaVuSans-67" transform="translate(170.068359 0)"/>
     <use xlink:href="#DejaVuSans-65" transform="translate(233.544922 0)"/>
     <use xlink:href="#DejaVuSans-72" transform="translate(295.068359 0)"/>
     <use xlink:href="#DejaVuSans-20" transform="translate(336.181641 0)"/>
     <use xlink:href="#DejaVuSans-36" transform="translate(367.96875 0)"/>
     <use xlink:href="#DejaVuSans-30" transform="translate(431.591797 0)"/>
    </g>
   </g>
   <g id="text_24">
    <!-- Gl 860B -->
    <g transform="translate(362.249903 113.067572) scale(0.03 -0.03)">
     <defs>
      <path id="DejaVuSans-47" d="M 3809 666 
L 3809 1919 
L 2778 1919 
L 2778 2438 
L 4434 2438 
L 4434 434 
Q 4069 175 3628 42 
Q 3188 -91 2688 -91 
Q 1594 -91 976 548 
Q 359 1188 359 2328 
Q 359 3472 976 4111 
Q 1594 4750 2688 4750 
Q 3144 4750 3555 4637 
Q 3966 4525 4313 4306 
L 4313 3634 
Q 3963 3931 3569 4081 
Q 3175 4231 2741 4231 
Q 1884 4231 1454 3753 
Q 1025 3275 1025 2328 
Q 1025 1384 1454 906 
Q 1884 428 2741 428 
Q 3075 428 3337 486 
Q 3600 544 3809 666 
z
" transform="scale(0.015625)"/>
     </defs>
     <use xlink:href="#DejaVuSans-47"/>
     <use xlink:href="#DejaVuSans-6c" transform="translate(77.490234 0)"/>
     <use xlink:href="#DejaVuSans-20" transform="translate(105.273438 0)"/>
     <use xlink:href="#DejaVuSans-38" transform="translate(137.060547 0)"/>
     <use xlink:href="#DejaVuSans-36" transform="translate(200.683594 0)"/>
     <use xlink:href="#DejaVuSans-30" transform="translate(264.306641 0)"/>
     <use xlink:href="#DejaVuSans-42" transform="translate(327.929688 0)"/>
    </g>
   </g>
   <g id="text_25">
    <!-- Gl 445 -->
    <g transform="translate(229.675446 192.646217) scale(0.03 -0.03)">
     <use xlink:href="#DejaVuSans-47"/>
     <use xlink:href="#DejaVuSans-6c" transform="translate(77.490234 0)"/>
     <use xlink:href="#DejaVuSans-20" transform="translate(105.273438 0)"/>
     <use xlink:href="#DejaVuSans-34" transform="translate(137.060547 0)"/>
     <use xlink:href="#DejaVuSans-34" transform="translate(200.683594 0)"/>
     <use xlink:href="#DejaVuSans-35" transform="translate(264.306641 0)"/>
    </g>
   </g>
   <g id="text_26">
    <!-- Gl 783A -->
    <g transform="translate(216.859921 106.833797) scale(0.03 -0.03)">
     <defs>
      <path id="DejaVuSans-37" d="M 525 4666 
L 3525 4666 
L 3525 4397 
L 1831 0 
L 1172 0 
L 2766 4134 
L 525 4134 
L 525 4666 
z
" transform="scale(0.015625)"/>
      <path id="DejaVuSans-33" d="M 2597 2516 
Q 3050 2419 3304 2112 
Q 3559 1806 3559 1356 
Q 3559 666 3084 287 
Q 2609 -91 1734 -91 
Q 1441 -91 1130 -33 
Q 819 25 488 141 
L 488 750 
Q 750 597 1062 519 
Q 1375 441 1716 441 
Q 2309 441 2620 675 
Q 2931 909 2931 1356 
Q 2931 1769 2642 2001 
Q 2353 2234 1838 2234 
L 1294 2234 
L 1294 2753 
L 1863 2753 
Q 2328 2753 2575 2939 
Q 2822 3125 2822 3475 
Q 2822 3834 2567 4026 
Q 2313 4219 1838 4219 
Q 1578 4219 1281 4162 
Q 984 4106 628 3988 
L 628 4550 
Q 988 4650 1302 4700 
Q 1616 4750 1894 4750 
Q 2613 4750 3031 4423 
Q 3450 4097 3450 3541 
Q 3450 3153 3228 2886 
Q 3006 2619 2597 2516 
z
" transform="scale(0.015625)"/>
      <path id="DejaVuSans-41" d="M 2188 4044 
L 1331 1722 
L 3047 1722 
L 2188 4044 
z
M 1831 4666 
L 2547 4666 
L 4325 0 
L 3669 0 
L 3244 1197 
L 1141 1197 
L 716 0 
L 50 0 
L 1831 4666 
z
" transform="scale(0.015625)"/>
     </defs>
     <use xlink:href="#DejaVuSans-47"/>
     <use xlink:href="#DejaVuSans-6c" transform="translate(77.490234 0)"/>
     <use xlink:href="#DejaVuSans-20" transform="translate(105.273438 0)"/>
     <use xlink:href="#DejaVuSans-37" transform="translate(137.060547 0)"/>
     <use xlink:href="#DejaVuSans-38" transform="translate(200.683594 0)"/>
     <use xlink:href="#DejaVuSans-33" transform="translate(264.306641 0)"/>
     <use xlink:href="#DejaVuSans-41" transform="translate(327.929688 0)"/>
    </g>
   </g>
   <g id="text_27">
    <!-- GJ 2005 -->
    <g transform="translate(197.886184 219.396876) scale(0.03 -0.03)">
     <defs>
      <path id="DejaVuSans-4a" d="M 628 4666 
L 1259 4666 
L 1259 325 
Q 1259 -519 939 -900 
Q 619 -1281 -91 -1281 
L -331 -1281 
L -331 -750 
L -134 -750 
Q 284 -750 456 -515 
Q 628 -281 628 325 
L 628 4666 
z
" transform="scale(0.015625)"/>
     </defs>
     <use xlink:href="#DejaVuSans-47"/>
     <use xlink:href="#DejaVuSans-4a" transform="translate(77.490234 0)"/>
     <use xlink:href="#DejaVuSans-20" transform="translate(106.982422 0)"/>
     <use xlink:href="#DejaVuSans-32" transform="translate(138.769531 0)"/>
     <use xlink:href="#DejaVuSans-30" transform="translate(202.392578 0)"/>
     <use xlink:href="#DejaVuSans-30" transform="translate(266.015625 0)"/>
     <use xlink:href="#DejaVuSans-35" transform="translate(329.638672 0)"/>
    </g>
   </g>
  </g>
 </g>
 <defs>
  <clipPath id="p1573ce6301">
   <rect x="40.603125" y="10.999219" width="357.12" height="266.112"/>
  </clipPath>
 </defs>
</svg>
